<svg width="16" height="16" viewBox="0 0 16 16" fill="none" xmlns="http://www.w3.org/2000/svg">
<path d="M8.70692 0.293C8.51939 0.105529 8.26508 0.000213623 7.99992 0.000213623C7.73475 0.000213623 7.48045 0.105529 7.29292 0.293L0.292919 7.293C0.110761 7.4816 0.00996641 7.7342 0.0122448 7.9964C0.0145233 8.2586 0.119692 8.50941 0.3051 8.69482C0.490508 8.88023 0.741321 8.9854 1.00352 8.98767C1.26571 8.98995 1.51832 8.88916 1.70692 8.707L1.99992 8.414V15C1.99992 15.2652 2.10528 15.5196 2.29281 15.7071C2.48035 15.8946 2.7347 16 2.99992 16H4.99992C5.26514 16 5.51949 15.8946 5.70703 15.7071C5.89456 15.5196 5.99992 15.2652 5.99992 15V13C5.99992 12.7348 6.10528 12.4804 6.29281 12.2929C6.48035 12.1054 6.7347 12 6.99992 12H8.99992C9.26514 12 9.51949 12.1054 9.70703 12.2929C9.89456 12.4804 9.99992 12.7348 9.99992 13V15C9.99992 15.2652 10.1053 15.5196 10.2928 15.7071C10.4803 15.8946 10.7347 16 10.9999 16H12.9999C13.2651 16 13.5195 15.8946 13.707 15.7071C13.8946 15.5196 13.9999 15.2652 13.9999 15V8.414L14.2929 8.707C14.4815 8.88916 14.7341 8.98995 14.9963 8.98767C15.2585 8.9854 15.5093 8.88023 15.6947 8.69482C15.8801 8.50941 15.9853 8.2586 15.9876 7.9964C15.9899 7.7342 15.8891 7.4816 15.7069 7.293L8.70692 0.293Z" fill="#9CA3AF"/>
</svg>
